<mxfile host="app.diagrams.net" modified="2024-08-11T04:12:25.355Z" agent="Mozilla/5.0 (Windows NT 10.0; Win64; x64) AppleWebKit/537.36 (KHTML, like Gecko) Chrome/127.0.0.0 Safari/537.36" etag="aGgDBW048coFqsYXjuIR" version="24.6.4" type="github">
  <diagram id="C5RBs43oDa-KdzZeNtuy" name="Page-1">
    <mxGraphModel dx="2647" dy="1433" grid="1" gridSize="10" guides="1" tooltips="1" connect="1" arrows="1" fold="1" page="1" pageScale="1" pageWidth="1700" pageHeight="1100" math="0" shadow="0">
      <root>
        <mxCell id="WIyWlLk6GJQsqaUBKTNV-0" />
        <mxCell id="WIyWlLk6GJQsqaUBKTNV-1" parent="WIyWlLk6GJQsqaUBKTNV-0" />
        <mxCell id="rC7I6_4OII2koHtztdNK-0" value="Figura2D" style="swimlane;fontStyle=1;align=center;verticalAlign=top;childLayout=stackLayout;horizontal=1;startSize=26;horizontalStack=0;resizeParent=1;resizeParentMax=0;resizeLast=0;collapsible=1;marginBottom=0;whiteSpace=wrap;html=1;" vertex="1" parent="WIyWlLk6GJQsqaUBKTNV-1">
          <mxGeometry x="765" y="130" width="160" height="104" as="geometry" />
        </mxCell>
        <mxCell id="rC7I6_4OII2koHtztdNK-1" value="- nombre: String" style="text;strokeColor=none;fillColor=none;align=left;verticalAlign=top;spacingLeft=4;spacingRight=4;overflow=hidden;rotatable=0;points=[[0,0.5],[1,0.5]];portConstraint=eastwest;whiteSpace=wrap;html=1;" vertex="1" parent="rC7I6_4OII2koHtztdNK-0">
          <mxGeometry y="26" width="160" height="26" as="geometry" />
        </mxCell>
        <mxCell id="rC7I6_4OII2koHtztdNK-2" value="- getNombre(): String" style="text;strokeColor=none;fillColor=none;align=left;verticalAlign=top;spacingLeft=4;spacingRight=4;overflow=hidden;rotatable=0;points=[[0,0.5],[1,0.5]];portConstraint=eastwest;whiteSpace=wrap;html=1;" vertex="1" parent="rC7I6_4OII2koHtztdNK-0">
          <mxGeometry y="52" width="160" height="26" as="geometry" />
        </mxCell>
        <mxCell id="rC7I6_4OII2koHtztdNK-3" value="- Figura2D(String nombre): " style="text;strokeColor=none;fillColor=none;align=left;verticalAlign=top;spacingLeft=4;spacingRight=4;overflow=hidden;rotatable=0;points=[[0,0.5],[1,0.5]];portConstraint=eastwest;whiteSpace=wrap;html=1;" vertex="1" parent="rC7I6_4OII2koHtztdNK-0">
          <mxGeometry y="78" width="160" height="26" as="geometry" />
        </mxCell>
        <mxCell id="rC7I6_4OII2koHtztdNK-4" value="Circulo" style="swimlane;fontStyle=1;align=center;verticalAlign=top;childLayout=stackLayout;horizontal=1;startSize=26;horizontalStack=0;resizeParent=1;resizeParentMax=0;resizeLast=0;collapsible=1;marginBottom=0;whiteSpace=wrap;html=1;" vertex="1" parent="WIyWlLk6GJQsqaUBKTNV-1">
          <mxGeometry x="175" y="430" width="160" height="258" as="geometry" />
        </mxCell>
        <mxCell id="rC7I6_4OII2koHtztdNK-5" value="- radio: double" style="text;strokeColor=none;fillColor=none;align=left;verticalAlign=top;spacingLeft=4;spacingRight=4;overflow=hidden;rotatable=0;points=[[0,0.5],[1,0.5]];portConstraint=eastwest;whiteSpace=wrap;html=1;" vertex="1" parent="rC7I6_4OII2koHtztdNK-4">
          <mxGeometry y="26" width="160" height="26" as="geometry" />
        </mxCell>
        <mxCell id="rC7I6_4OII2koHtztdNK-6" value="- getRadio(): double" style="text;strokeColor=none;fillColor=none;align=left;verticalAlign=top;spacingLeft=4;spacingRight=4;overflow=hidden;rotatable=0;points=[[0,0.5],[1,0.5]];portConstraint=eastwest;whiteSpace=wrap;html=1;" vertex="1" parent="rC7I6_4OII2koHtztdNK-4">
          <mxGeometry y="52" width="160" height="26" as="geometry" />
        </mxCell>
        <mxCell id="rC7I6_4OII2koHtztdNK-7" value="- getNombre(): String" style="text;strokeColor=none;fillColor=none;align=left;verticalAlign=top;spacingLeft=4;spacingRight=4;overflow=hidden;rotatable=0;points=[[0,0.5],[1,0.5]];portConstraint=eastwest;whiteSpace=wrap;html=1;" vertex="1" parent="rC7I6_4OII2koHtztdNK-4">
          <mxGeometry y="78" width="160" height="32" as="geometry" />
        </mxCell>
        <mxCell id="rC7I6_4OII2koHtztdNK-8" value="- setRadio(double radio): void" style="text;strokeColor=none;fillColor=none;align=left;verticalAlign=top;spacingLeft=4;spacingRight=4;overflow=hidden;rotatable=0;points=[[0,0.5],[1,0.5]];portConstraint=eastwest;whiteSpace=wrap;html=1;" vertex="1" parent="rC7I6_4OII2koHtztdNK-4">
          <mxGeometry y="110" width="160" height="36" as="geometry" />
        </mxCell>
        <mxCell id="rC7I6_4OII2koHtztdNK-9" value="- setNombre(String nombre): void" style="text;strokeColor=none;fillColor=none;align=left;verticalAlign=top;spacingLeft=4;spacingRight=4;overflow=hidden;rotatable=0;points=[[0,0.5],[1,0.5]];portConstraint=eastwest;whiteSpace=wrap;html=1;" vertex="1" parent="rC7I6_4OII2koHtztdNK-4">
          <mxGeometry y="146" width="160" height="40" as="geometry" />
        </mxCell>
        <mxCell id="rC7I6_4OII2koHtztdNK-10" value="- calcularPerimetro(): double" style="text;strokeColor=none;fillColor=none;align=left;verticalAlign=top;spacingLeft=4;spacingRight=4;overflow=hidden;rotatable=0;points=[[0,0.5],[1,0.5]];portConstraint=eastwest;whiteSpace=wrap;html=1;" vertex="1" parent="rC7I6_4OII2koHtztdNK-4">
          <mxGeometry y="186" width="160" height="34" as="geometry" />
        </mxCell>
        <mxCell id="rC7I6_4OII2koHtztdNK-11" value="- Circulo(double radio, String nombre): " style="text;strokeColor=none;fillColor=none;align=left;verticalAlign=top;spacingLeft=4;spacingRight=4;overflow=hidden;rotatable=0;points=[[0,0.5],[1,0.5]];portConstraint=eastwest;whiteSpace=wrap;html=1;" vertex="1" parent="rC7I6_4OII2koHtztdNK-4">
          <mxGeometry y="220" width="160" height="38" as="geometry" />
        </mxCell>
        <mxCell id="rC7I6_4OII2koHtztdNK-12" value="InterfazCalcularPerimetro" style="rounded=0;whiteSpace=wrap;html=1;" vertex="1" parent="WIyWlLk6GJQsqaUBKTNV-1">
          <mxGeometry x="1045" y="165" width="210" height="60" as="geometry" />
        </mxCell>
        <mxCell id="rC7I6_4OII2koHtztdNK-13" value="" style="endArrow=block;html=1;rounded=0;entryX=0;entryY=0.5;entryDx=0;entryDy=0;exitX=1;exitY=0.5;exitDx=0;exitDy=0;endFill=0;" edge="1" parent="WIyWlLk6GJQsqaUBKTNV-1" source="rC7I6_4OII2koHtztdNK-2" target="rC7I6_4OII2koHtztdNK-12">
          <mxGeometry width="50" height="50" relative="1" as="geometry">
            <mxPoint x="535" y="210" as="sourcePoint" />
            <mxPoint x="485" y="460" as="targetPoint" />
          </mxGeometry>
        </mxCell>
        <mxCell id="rC7I6_4OII2koHtztdNK-15" value="" style="endArrow=block;html=1;rounded=0;exitX=0.5;exitY=0;exitDx=0;exitDy=0;entryX=0.5;entryY=1.026;entryDx=0;entryDy=0;entryPerimeter=0;endFill=0;" edge="1" parent="WIyWlLk6GJQsqaUBKTNV-1" source="rC7I6_4OII2koHtztdNK-4" target="rC7I6_4OII2koHtztdNK-3">
          <mxGeometry width="50" height="50" relative="1" as="geometry">
            <mxPoint x="375" y="390" as="sourcePoint" />
            <mxPoint x="515" y="340" as="targetPoint" />
          </mxGeometry>
        </mxCell>
        <mxCell id="rC7I6_4OII2koHtztdNK-16" value="Cuadrado" style="swimlane;fontStyle=1;align=center;verticalAlign=top;childLayout=stackLayout;horizontal=1;startSize=26;horizontalStack=0;resizeParent=1;resizeParentMax=0;resizeLast=0;collapsible=1;marginBottom=0;whiteSpace=wrap;html=1;" vertex="1" parent="WIyWlLk6GJQsqaUBKTNV-1">
          <mxGeometry x="345" y="430" width="160" height="244" as="geometry" />
        </mxCell>
        <mxCell id="rC7I6_4OII2koHtztdNK-17" value="- lado: double" style="text;strokeColor=none;fillColor=none;align=left;verticalAlign=top;spacingLeft=4;spacingRight=4;overflow=hidden;rotatable=0;points=[[0,0.5],[1,0.5]];portConstraint=eastwest;whiteSpace=wrap;html=1;" vertex="1" parent="rC7I6_4OII2koHtztdNK-16">
          <mxGeometry y="26" width="160" height="26" as="geometry" />
        </mxCell>
        <mxCell id="rC7I6_4OII2koHtztdNK-18" value="- setLado(double lado): void" style="text;strokeColor=none;fillColor=none;align=left;verticalAlign=top;spacingLeft=4;spacingRight=4;overflow=hidden;rotatable=0;points=[[0,0.5],[1,0.5]];portConstraint=eastwest;whiteSpace=wrap;html=1;" vertex="1" parent="rC7I6_4OII2koHtztdNK-16">
          <mxGeometry y="52" width="160" height="26" as="geometry" />
        </mxCell>
        <mxCell id="rC7I6_4OII2koHtztdNK-19" value="- setNombre(String nombre): void" style="text;strokeColor=none;fillColor=none;align=left;verticalAlign=top;spacingLeft=4;spacingRight=4;overflow=hidden;rotatable=0;points=[[0,0.5],[1,0.5]];portConstraint=eastwest;whiteSpace=wrap;html=1;" vertex="1" parent="rC7I6_4OII2koHtztdNK-16">
          <mxGeometry y="78" width="160" height="42" as="geometry" />
        </mxCell>
        <mxCell id="rC7I6_4OII2koHtztdNK-20" value="- getLado(): double" style="text;strokeColor=none;fillColor=none;align=left;verticalAlign=top;spacingLeft=4;spacingRight=4;overflow=hidden;rotatable=0;points=[[0,0.5],[1,0.5]];portConstraint=eastwest;whiteSpace=wrap;html=1;" vertex="1" parent="rC7I6_4OII2koHtztdNK-16">
          <mxGeometry y="120" width="160" height="26" as="geometry" />
        </mxCell>
        <mxCell id="rC7I6_4OII2koHtztdNK-21" value="- getNombre(): String" style="text;strokeColor=none;fillColor=none;align=left;verticalAlign=top;spacingLeft=4;spacingRight=4;overflow=hidden;rotatable=0;points=[[0,0.5],[1,0.5]];portConstraint=eastwest;whiteSpace=wrap;html=1;" vertex="1" parent="rC7I6_4OII2koHtztdNK-16">
          <mxGeometry y="146" width="160" height="26" as="geometry" />
        </mxCell>
        <mxCell id="rC7I6_4OII2koHtztdNK-22" value="- calcularPerimetro(): double" style="text;strokeColor=none;fillColor=none;align=left;verticalAlign=top;spacingLeft=4;spacingRight=4;overflow=hidden;rotatable=0;points=[[0,0.5],[1,0.5]];portConstraint=eastwest;whiteSpace=wrap;html=1;" vertex="1" parent="rC7I6_4OII2koHtztdNK-16">
          <mxGeometry y="172" width="160" height="34" as="geometry" />
        </mxCell>
        <mxCell id="rC7I6_4OII2koHtztdNK-23" value="- Cuadrado(double lado, String nombre): " style="text;strokeColor=none;fillColor=none;align=left;verticalAlign=top;spacingLeft=4;spacingRight=4;overflow=hidden;rotatable=0;points=[[0,0.5],[1,0.5]];portConstraint=eastwest;whiteSpace=wrap;html=1;" vertex="1" parent="rC7I6_4OII2koHtztdNK-16">
          <mxGeometry y="206" width="160" height="38" as="geometry" />
        </mxCell>
        <mxCell id="rC7I6_4OII2koHtztdNK-24" value="" style="endArrow=block;html=1;rounded=0;exitX=0.5;exitY=0;exitDx=0;exitDy=0;endFill=0;" edge="1" parent="WIyWlLk6GJQsqaUBKTNV-1" source="rC7I6_4OII2koHtztdNK-16">
          <mxGeometry width="50" height="50" relative="1" as="geometry">
            <mxPoint x="415" y="414" as="sourcePoint" />
            <mxPoint x="845" y="234" as="targetPoint" />
            <Array as="points">
              <mxPoint x="845" y="234" />
            </Array>
          </mxGeometry>
        </mxCell>
        <mxCell id="rC7I6_4OII2koHtztdNK-181" value="PoligonoRegular" style="swimlane;fontStyle=1;align=center;verticalAlign=top;childLayout=stackLayout;horizontal=1;startSize=26;horizontalStack=0;resizeParent=1;resizeParentMax=0;resizeLast=0;collapsible=1;marginBottom=0;whiteSpace=wrap;html=1;" vertex="1" parent="WIyWlLk6GJQsqaUBKTNV-1">
          <mxGeometry x="515" y="430" width="160" height="422" as="geometry" />
        </mxCell>
        <mxCell id="rC7I6_4OII2koHtztdNK-182" value="- numeroLados: double" style="text;strokeColor=none;fillColor=none;align=left;verticalAlign=top;spacingLeft=4;spacingRight=4;overflow=hidden;rotatable=0;points=[[0,0.5],[1,0.5]];portConstraint=eastwest;whiteSpace=wrap;html=1;" vertex="1" parent="rC7I6_4OII2koHtztdNK-181">
          <mxGeometry y="26" width="160" height="26" as="geometry" />
        </mxCell>
        <mxCell id="rC7I6_4OII2koHtztdNK-183" value="- longitudLado: double" style="text;strokeColor=none;fillColor=none;align=left;verticalAlign=top;spacingLeft=4;spacingRight=4;overflow=hidden;rotatable=0;points=[[0,0.5],[1,0.5]];portConstraint=eastwest;whiteSpace=wrap;html=1;" vertex="1" parent="rC7I6_4OII2koHtztdNK-181">
          <mxGeometry y="52" width="160" height="26" as="geometry" />
        </mxCell>
        <mxCell id="rC7I6_4OII2koHtztdNK-184" value="- setNumeroLados(double numeroLados): void" style="text;strokeColor=none;fillColor=none;align=left;verticalAlign=top;spacingLeft=4;spacingRight=4;overflow=hidden;rotatable=0;points=[[0,0.5],[1,0.5]];portConstraint=eastwest;whiteSpace=wrap;html=1;" vertex="1" parent="rC7I6_4OII2koHtztdNK-181">
          <mxGeometry y="78" width="160" height="32" as="geometry" />
        </mxCell>
        <mxCell id="rC7I6_4OII2koHtztdNK-185" value="- setLongitudLado(double longitudLado): void" style="text;strokeColor=none;fillColor=none;align=left;verticalAlign=top;spacingLeft=4;spacingRight=4;overflow=hidden;rotatable=0;points=[[0,0.5],[1,0.5]];portConstraint=eastwest;whiteSpace=wrap;html=1;" vertex="1" parent="rC7I6_4OII2koHtztdNK-181">
          <mxGeometry y="110" width="160" height="40" as="geometry" />
        </mxCell>
        <mxCell id="rC7I6_4OII2koHtztdNK-186" value="- setNombre(String nombre): void" style="text;strokeColor=none;fillColor=none;align=left;verticalAlign=top;spacingLeft=4;spacingRight=4;overflow=hidden;rotatable=0;points=[[0,0.5],[1,0.5]];portConstraint=eastwest;whiteSpace=wrap;html=1;" vertex="1" parent="rC7I6_4OII2koHtztdNK-181">
          <mxGeometry y="150" width="160" height="30" as="geometry" />
        </mxCell>
        <mxCell id="rC7I6_4OII2koHtztdNK-187" value="- getNumeroLados(): double" style="text;strokeColor=none;fillColor=none;align=left;verticalAlign=top;spacingLeft=4;spacingRight=4;overflow=hidden;rotatable=0;points=[[0,0.5],[1,0.5]];portConstraint=eastwest;whiteSpace=wrap;html=1;" vertex="1" parent="rC7I6_4OII2koHtztdNK-181">
          <mxGeometry y="180" width="160" height="40" as="geometry" />
        </mxCell>
        <mxCell id="rC7I6_4OII2koHtztdNK-188" value="- getLongitudLado(): double" style="text;strokeColor=none;fillColor=none;align=left;verticalAlign=top;spacingLeft=4;spacingRight=4;overflow=hidden;rotatable=0;points=[[0,0.5],[1,0.5]];portConstraint=eastwest;whiteSpace=wrap;html=1;" vertex="1" parent="rC7I6_4OII2koHtztdNK-181">
          <mxGeometry y="220" width="160" height="26" as="geometry" />
        </mxCell>
        <mxCell id="rC7I6_4OII2koHtztdNK-189" value="- getNombre(): String" style="text;strokeColor=none;fillColor=none;align=left;verticalAlign=top;spacingLeft=4;spacingRight=4;overflow=hidden;rotatable=0;points=[[0,0.5],[1,0.5]];portConstraint=eastwest;whiteSpace=wrap;html=1;" vertex="1" parent="rC7I6_4OII2koHtztdNK-181">
          <mxGeometry y="246" width="160" height="26" as="geometry" />
        </mxCell>
        <mxCell id="rC7I6_4OII2koHtztdNK-190" value="- calcularPerimetro(): double" style="text;strokeColor=none;fillColor=none;align=left;verticalAlign=top;spacingLeft=4;spacingRight=4;overflow=hidden;rotatable=0;points=[[0,0.5],[1,0.5]];portConstraint=eastwest;whiteSpace=wrap;html=1;" vertex="1" parent="rC7I6_4OII2koHtztdNK-181">
          <mxGeometry y="272" width="160" height="38" as="geometry" />
        </mxCell>
        <mxCell id="rC7I6_4OII2koHtztdNK-191" value="- areaOctagono(): double" style="text;strokeColor=none;fillColor=none;align=left;verticalAlign=top;spacingLeft=4;spacingRight=4;overflow=hidden;rotatable=0;points=[[0,0.5],[1,0.5]];portConstraint=eastwest;whiteSpace=wrap;html=1;" vertex="1" parent="rC7I6_4OII2koHtztdNK-181">
          <mxGeometry y="310" width="160" height="26" as="geometry" />
        </mxCell>
        <mxCell id="rC7I6_4OII2koHtztdNK-192" value="- areaEneagono(): double" style="text;strokeColor=none;fillColor=none;align=left;verticalAlign=top;spacingLeft=4;spacingRight=4;overflow=hidden;rotatable=0;points=[[0,0.5],[1,0.5]];portConstraint=eastwest;whiteSpace=wrap;html=1;" vertex="1" parent="rC7I6_4OII2koHtztdNK-181">
          <mxGeometry y="336" width="160" height="26" as="geometry" />
        </mxCell>
        <mxCell id="rC7I6_4OII2koHtztdNK-193" value="- areaDecagono(): double" style="text;strokeColor=none;fillColor=none;align=left;verticalAlign=top;spacingLeft=4;spacingRight=4;overflow=hidden;rotatable=0;points=[[0,0.5],[1,0.5]];portConstraint=eastwest;whiteSpace=wrap;html=1;" vertex="1" parent="rC7I6_4OII2koHtztdNK-181">
          <mxGeometry y="362" width="160" height="26" as="geometry" />
        </mxCell>
        <mxCell id="rC7I6_4OII2koHtztdNK-194" value="- PoligonoRegular(double numeroLados, double longitudLado, String nombre): " style="text;strokeColor=none;fillColor=none;align=left;verticalAlign=top;spacingLeft=4;spacingRight=4;overflow=hidden;rotatable=0;points=[[0,0.5],[1,0.5]];portConstraint=eastwest;whiteSpace=wrap;html=1;" vertex="1" parent="rC7I6_4OII2koHtztdNK-181">
          <mxGeometry y="388" width="160" height="34" as="geometry" />
        </mxCell>
        <mxCell id="rC7I6_4OII2koHtztdNK-196" value="Rectangulo" style="swimlane;fontStyle=1;align=center;verticalAlign=top;childLayout=stackLayout;horizontal=1;startSize=26;horizontalStack=0;resizeParent=1;resizeParentMax=0;resizeLast=0;collapsible=1;marginBottom=0;whiteSpace=wrap;html=1;" vertex="1" parent="WIyWlLk6GJQsqaUBKTNV-1">
          <mxGeometry x="685" y="430" width="160" height="384" as="geometry" />
        </mxCell>
        <mxCell id="rC7I6_4OII2koHtztdNK-197" value="- largo: double" style="text;strokeColor=none;fillColor=none;align=left;verticalAlign=top;spacingLeft=4;spacingRight=4;overflow=hidden;rotatable=0;points=[[0,0.5],[1,0.5]];portConstraint=eastwest;whiteSpace=wrap;html=1;" vertex="1" parent="rC7I6_4OII2koHtztdNK-196">
          <mxGeometry y="26" width="160" height="26" as="geometry" />
        </mxCell>
        <mxCell id="rC7I6_4OII2koHtztdNK-198" value="- ancho: double" style="text;strokeColor=none;fillColor=none;align=left;verticalAlign=top;spacingLeft=4;spacingRight=4;overflow=hidden;rotatable=0;points=[[0,0.5],[1,0.5]];portConstraint=eastwest;whiteSpace=wrap;html=1;" vertex="1" parent="rC7I6_4OII2koHtztdNK-196">
          <mxGeometry y="52" width="160" height="26" as="geometry" />
        </mxCell>
        <mxCell id="rC7I6_4OII2koHtztdNK-199" value="- setLargo(double largo): void" style="text;strokeColor=none;fillColor=none;align=left;verticalAlign=top;spacingLeft=4;spacingRight=4;overflow=hidden;rotatable=0;points=[[0,0.5],[1,0.5]];portConstraint=eastwest;whiteSpace=wrap;html=1;" vertex="1" parent="rC7I6_4OII2koHtztdNK-196">
          <mxGeometry y="78" width="160" height="42" as="geometry" />
        </mxCell>
        <mxCell id="rC7I6_4OII2koHtztdNK-200" value="- setAncho(double ancho): void" style="text;strokeColor=none;fillColor=none;align=left;verticalAlign=top;spacingLeft=4;spacingRight=4;overflow=hidden;rotatable=0;points=[[0,0.5],[1,0.5]];portConstraint=eastwest;whiteSpace=wrap;html=1;" vertex="1" parent="rC7I6_4OII2koHtztdNK-196">
          <mxGeometry y="120" width="160" height="40" as="geometry" />
        </mxCell>
        <mxCell id="rC7I6_4OII2koHtztdNK-201" value="- setNombre(String nombre): void" style="text;strokeColor=none;fillColor=none;align=left;verticalAlign=top;spacingLeft=4;spacingRight=4;overflow=hidden;rotatable=0;points=[[0,0.5],[1,0.5]];portConstraint=eastwest;whiteSpace=wrap;html=1;" vertex="1" parent="rC7I6_4OII2koHtztdNK-196">
          <mxGeometry y="160" width="160" height="40" as="geometry" />
        </mxCell>
        <mxCell id="rC7I6_4OII2koHtztdNK-202" value="- getLargo(): double" style="text;strokeColor=none;fillColor=none;align=left;verticalAlign=top;spacingLeft=4;spacingRight=4;overflow=hidden;rotatable=0;points=[[0,0.5],[1,0.5]];portConstraint=eastwest;whiteSpace=wrap;html=1;" vertex="1" parent="rC7I6_4OII2koHtztdNK-196">
          <mxGeometry y="200" width="160" height="26" as="geometry" />
        </mxCell>
        <mxCell id="rC7I6_4OII2koHtztdNK-203" value="- getAncho(): double" style="text;strokeColor=none;fillColor=none;align=left;verticalAlign=top;spacingLeft=4;spacingRight=4;overflow=hidden;rotatable=0;points=[[0,0.5],[1,0.5]];portConstraint=eastwest;whiteSpace=wrap;html=1;" vertex="1" parent="rC7I6_4OII2koHtztdNK-196">
          <mxGeometry y="226" width="160" height="26" as="geometry" />
        </mxCell>
        <mxCell id="rC7I6_4OII2koHtztdNK-204" value="- getNombre(): String" style="text;strokeColor=none;fillColor=none;align=left;verticalAlign=top;spacingLeft=4;spacingRight=4;overflow=hidden;rotatable=0;points=[[0,0.5],[1,0.5]];portConstraint=eastwest;whiteSpace=wrap;html=1;" vertex="1" parent="rC7I6_4OII2koHtztdNK-196">
          <mxGeometry y="252" width="160" height="26" as="geometry" />
        </mxCell>
        <mxCell id="rC7I6_4OII2koHtztdNK-205" value="- calcularPerimetro(): double" style="text;strokeColor=none;fillColor=none;align=left;verticalAlign=top;spacingLeft=4;spacingRight=4;overflow=hidden;rotatable=0;points=[[0,0.5],[1,0.5]];portConstraint=eastwest;whiteSpace=wrap;html=1;" vertex="1" parent="rC7I6_4OII2koHtztdNK-196">
          <mxGeometry y="278" width="160" height="26" as="geometry" />
        </mxCell>
        <mxCell id="rC7I6_4OII2koHtztdNK-206" value="- calcularArea(): double" style="text;strokeColor=none;fillColor=none;align=left;verticalAlign=top;spacingLeft=4;spacingRight=4;overflow=hidden;rotatable=0;points=[[0,0.5],[1,0.5]];portConstraint=eastwest;whiteSpace=wrap;html=1;" vertex="1" parent="rC7I6_4OII2koHtztdNK-196">
          <mxGeometry y="304" width="160" height="26" as="geometry" />
        </mxCell>
        <mxCell id="rC7I6_4OII2koHtztdNK-207" value="- Rectangulo(double largo, double ancho, String nombre): " style="text;strokeColor=none;fillColor=none;align=left;verticalAlign=top;spacingLeft=4;spacingRight=4;overflow=hidden;rotatable=0;points=[[0,0.5],[1,0.5]];portConstraint=eastwest;whiteSpace=wrap;html=1;" vertex="1" parent="rC7I6_4OII2koHtztdNK-196">
          <mxGeometry y="330" width="160" height="54" as="geometry" />
        </mxCell>
        <mxCell id="rC7I6_4OII2koHtztdNK-263" value="Rombo" style="swimlane;fontStyle=1;align=center;verticalAlign=top;childLayout=stackLayout;horizontal=1;startSize=26;horizontalStack=0;resizeParent=1;resizeParentMax=0;resizeLast=0;collapsible=1;marginBottom=0;whiteSpace=wrap;html=1;" vertex="1" parent="WIyWlLk6GJQsqaUBKTNV-1">
          <mxGeometry x="855" y="430" width="160" height="482" as="geometry" />
        </mxCell>
        <mxCell id="rC7I6_4OII2koHtztdNK-264" value="- lado: double" style="text;strokeColor=none;fillColor=none;align=left;verticalAlign=top;spacingLeft=4;spacingRight=4;overflow=hidden;rotatable=0;points=[[0,0.5],[1,0.5]];portConstraint=eastwest;whiteSpace=wrap;html=1;" vertex="1" parent="rC7I6_4OII2koHtztdNK-263">
          <mxGeometry y="26" width="160" height="26" as="geometry" />
        </mxCell>
        <mxCell id="rC7I6_4OII2koHtztdNK-265" value="- DiagonalMayor: double" style="text;strokeColor=none;fillColor=none;align=left;verticalAlign=top;spacingLeft=4;spacingRight=4;overflow=hidden;rotatable=0;points=[[0,0.5],[1,0.5]];portConstraint=eastwest;whiteSpace=wrap;html=1;" vertex="1" parent="rC7I6_4OII2koHtztdNK-263">
          <mxGeometry y="52" width="160" height="26" as="geometry" />
        </mxCell>
        <mxCell id="rC7I6_4OII2koHtztdNK-266" value="- DiagonalMenor: double" style="text;strokeColor=none;fillColor=none;align=left;verticalAlign=top;spacingLeft=4;spacingRight=4;overflow=hidden;rotatable=0;points=[[0,0.5],[1,0.5]];portConstraint=eastwest;whiteSpace=wrap;html=1;" vertex="1" parent="rC7I6_4OII2koHtztdNK-263">
          <mxGeometry y="78" width="160" height="26" as="geometry" />
        </mxCell>
        <mxCell id="rC7I6_4OII2koHtztdNK-267" value="- getLado(): double" style="text;strokeColor=none;fillColor=none;align=left;verticalAlign=top;spacingLeft=4;spacingRight=4;overflow=hidden;rotatable=0;points=[[0,0.5],[1,0.5]];portConstraint=eastwest;whiteSpace=wrap;html=1;" vertex="1" parent="rC7I6_4OII2koHtztdNK-263">
          <mxGeometry y="104" width="160" height="26" as="geometry" />
        </mxCell>
        <mxCell id="rC7I6_4OII2koHtztdNK-268" value="- getDiagonalMayor(): double" style="text;strokeColor=none;fillColor=none;align=left;verticalAlign=top;spacingLeft=4;spacingRight=4;overflow=hidden;rotatable=0;points=[[0,0.5],[1,0.5]];portConstraint=eastwest;whiteSpace=wrap;html=1;" vertex="1" parent="rC7I6_4OII2koHtztdNK-263">
          <mxGeometry y="130" width="160" height="40" as="geometry" />
        </mxCell>
        <mxCell id="rC7I6_4OII2koHtztdNK-269" value="- getDiagonalMenor(): double" style="text;strokeColor=none;fillColor=none;align=left;verticalAlign=top;spacingLeft=4;spacingRight=4;overflow=hidden;rotatable=0;points=[[0,0.5],[1,0.5]];portConstraint=eastwest;whiteSpace=wrap;html=1;" vertex="1" parent="rC7I6_4OII2koHtztdNK-263">
          <mxGeometry y="170" width="160" height="34" as="geometry" />
        </mxCell>
        <mxCell id="rC7I6_4OII2koHtztdNK-270" value="- getNombre(): String" style="text;strokeColor=none;fillColor=none;align=left;verticalAlign=top;spacingLeft=4;spacingRight=4;overflow=hidden;rotatable=0;points=[[0,0.5],[1,0.5]];portConstraint=eastwest;whiteSpace=wrap;html=1;" vertex="1" parent="rC7I6_4OII2koHtztdNK-263">
          <mxGeometry y="204" width="160" height="26" as="geometry" />
        </mxCell>
        <mxCell id="rC7I6_4OII2koHtztdNK-271" value="- setLado(double lado): void" style="text;strokeColor=none;fillColor=none;align=left;verticalAlign=top;spacingLeft=4;spacingRight=4;overflow=hidden;rotatable=0;points=[[0,0.5],[1,0.5]];portConstraint=eastwest;whiteSpace=wrap;html=1;" vertex="1" parent="rC7I6_4OII2koHtztdNK-263">
          <mxGeometry y="230" width="160" height="26" as="geometry" />
        </mxCell>
        <mxCell id="rC7I6_4OII2koHtztdNK-272" value="- setDiagonalMayor(double DiagonalMayor): void" style="text;strokeColor=none;fillColor=none;align=left;verticalAlign=top;spacingLeft=4;spacingRight=4;overflow=hidden;rotatable=0;points=[[0,0.5],[1,0.5]];portConstraint=eastwest;whiteSpace=wrap;html=1;" vertex="1" parent="rC7I6_4OII2koHtztdNK-263">
          <mxGeometry y="256" width="160" height="36" as="geometry" />
        </mxCell>
        <mxCell id="rC7I6_4OII2koHtztdNK-273" value="- setDiagonalMenor(double DiagonalMenor): void" style="text;strokeColor=none;fillColor=none;align=left;verticalAlign=top;spacingLeft=4;spacingRight=4;overflow=hidden;rotatable=0;points=[[0,0.5],[1,0.5]];portConstraint=eastwest;whiteSpace=wrap;html=1;" vertex="1" parent="rC7I6_4OII2koHtztdNK-263">
          <mxGeometry y="292" width="160" height="40" as="geometry" />
        </mxCell>
        <mxCell id="rC7I6_4OII2koHtztdNK-274" value="- setNombre(String nombre): void" style="text;strokeColor=none;fillColor=none;align=left;verticalAlign=top;spacingLeft=4;spacingRight=4;overflow=hidden;rotatable=0;points=[[0,0.5],[1,0.5]];portConstraint=eastwest;whiteSpace=wrap;html=1;" vertex="1" parent="rC7I6_4OII2koHtztdNK-263">
          <mxGeometry y="332" width="160" height="40" as="geometry" />
        </mxCell>
        <mxCell id="rC7I6_4OII2koHtztdNK-275" value="- calcularPerimetro(): double" style="text;strokeColor=none;fillColor=none;align=left;verticalAlign=top;spacingLeft=4;spacingRight=4;overflow=hidden;rotatable=0;points=[[0,0.5],[1,0.5]];portConstraint=eastwest;whiteSpace=wrap;html=1;" vertex="1" parent="rC7I6_4OII2koHtztdNK-263">
          <mxGeometry y="372" width="160" height="40" as="geometry" />
        </mxCell>
        <mxCell id="rC7I6_4OII2koHtztdNK-276" value="- Rombo(double lado, double DiagonalMayor, double DiagonalMenor, String nombre): " style="text;strokeColor=none;fillColor=none;align=left;verticalAlign=top;spacingLeft=4;spacingRight=4;overflow=hidden;rotatable=0;points=[[0,0.5],[1,0.5]];portConstraint=eastwest;whiteSpace=wrap;html=1;" vertex="1" parent="rC7I6_4OII2koHtztdNK-263">
          <mxGeometry y="412" width="160" height="70" as="geometry" />
        </mxCell>
        <mxCell id="rC7I6_4OII2koHtztdNK-277" value="Romboide" style="swimlane;fontStyle=1;align=center;verticalAlign=top;childLayout=stackLayout;horizontal=1;startSize=26;horizontalStack=0;resizeParent=1;resizeParentMax=0;resizeLast=0;collapsible=1;marginBottom=0;whiteSpace=wrap;html=1;" vertex="1" parent="WIyWlLk6GJQsqaUBKTNV-1">
          <mxGeometry x="1025" y="430" width="160" height="420" as="geometry" />
        </mxCell>
        <mxCell id="rC7I6_4OII2koHtztdNK-278" value="- base: double" style="text;strokeColor=none;fillColor=none;align=left;verticalAlign=top;spacingLeft=4;spacingRight=4;overflow=hidden;rotatable=0;points=[[0,0.5],[1,0.5]];portConstraint=eastwest;whiteSpace=wrap;html=1;" vertex="1" parent="rC7I6_4OII2koHtztdNK-277">
          <mxGeometry y="26" width="160" height="26" as="geometry" />
        </mxCell>
        <mxCell id="rC7I6_4OII2koHtztdNK-279" value="- altura: double" style="text;strokeColor=none;fillColor=none;align=left;verticalAlign=top;spacingLeft=4;spacingRight=4;overflow=hidden;rotatable=0;points=[[0,0.5],[1,0.5]];portConstraint=eastwest;whiteSpace=wrap;html=1;" vertex="1" parent="rC7I6_4OII2koHtztdNK-277">
          <mxGeometry y="52" width="160" height="26" as="geometry" />
        </mxCell>
        <mxCell id="rC7I6_4OII2koHtztdNK-280" value="- setBase(double base): void" style="text;strokeColor=none;fillColor=none;align=left;verticalAlign=top;spacingLeft=4;spacingRight=4;overflow=hidden;rotatable=0;points=[[0,0.5],[1,0.5]];portConstraint=eastwest;whiteSpace=wrap;html=1;" vertex="1" parent="rC7I6_4OII2koHtztdNK-277">
          <mxGeometry y="78" width="160" height="42" as="geometry" />
        </mxCell>
        <mxCell id="rC7I6_4OII2koHtztdNK-281" value="- setAltura(double altura): void" style="text;strokeColor=none;fillColor=none;align=left;verticalAlign=top;spacingLeft=4;spacingRight=4;overflow=hidden;rotatable=0;points=[[0,0.5],[1,0.5]];portConstraint=eastwest;whiteSpace=wrap;html=1;" vertex="1" parent="rC7I6_4OII2koHtztdNK-277">
          <mxGeometry y="120" width="160" height="46" as="geometry" />
        </mxCell>
        <mxCell id="rC7I6_4OII2koHtztdNK-282" value="- setNombre(String nombre): void" style="text;strokeColor=none;fillColor=none;align=left;verticalAlign=top;spacingLeft=4;spacingRight=4;overflow=hidden;rotatable=0;points=[[0,0.5],[1,0.5]];portConstraint=eastwest;whiteSpace=wrap;html=1;" vertex="1" parent="rC7I6_4OII2koHtztdNK-277">
          <mxGeometry y="166" width="160" height="40" as="geometry" />
        </mxCell>
        <mxCell id="rC7I6_4OII2koHtztdNK-283" value="- getBase(): double" style="text;strokeColor=none;fillColor=none;align=left;verticalAlign=top;spacingLeft=4;spacingRight=4;overflow=hidden;rotatable=0;points=[[0,0.5],[1,0.5]];portConstraint=eastwest;whiteSpace=wrap;html=1;" vertex="1" parent="rC7I6_4OII2koHtztdNK-277">
          <mxGeometry y="206" width="160" height="26" as="geometry" />
        </mxCell>
        <mxCell id="rC7I6_4OII2koHtztdNK-284" value="- getAltura(): double" style="text;strokeColor=none;fillColor=none;align=left;verticalAlign=top;spacingLeft=4;spacingRight=4;overflow=hidden;rotatable=0;points=[[0,0.5],[1,0.5]];portConstraint=eastwest;whiteSpace=wrap;html=1;" vertex="1" parent="rC7I6_4OII2koHtztdNK-277">
          <mxGeometry y="232" width="160" height="26" as="geometry" />
        </mxCell>
        <mxCell id="rC7I6_4OII2koHtztdNK-285" value="- getNombre(): String" style="text;strokeColor=none;fillColor=none;align=left;verticalAlign=top;spacingLeft=4;spacingRight=4;overflow=hidden;rotatable=0;points=[[0,0.5],[1,0.5]];portConstraint=eastwest;whiteSpace=wrap;html=1;" vertex="1" parent="rC7I6_4OII2koHtztdNK-277">
          <mxGeometry y="258" width="160" height="26" as="geometry" />
        </mxCell>
        <mxCell id="rC7I6_4OII2koHtztdNK-286" value="- calcularPerimetro(): double" style="text;strokeColor=none;fillColor=none;align=left;verticalAlign=top;spacingLeft=4;spacingRight=4;overflow=hidden;rotatable=0;points=[[0,0.5],[1,0.5]];portConstraint=eastwest;whiteSpace=wrap;html=1;" vertex="1" parent="rC7I6_4OII2koHtztdNK-277">
          <mxGeometry y="284" width="160" height="46" as="geometry" />
        </mxCell>
        <mxCell id="rC7I6_4OII2koHtztdNK-287" value="- calcularArea(): double" style="text;strokeColor=none;fillColor=none;align=left;verticalAlign=top;spacingLeft=4;spacingRight=4;overflow=hidden;rotatable=0;points=[[0,0.5],[1,0.5]];portConstraint=eastwest;whiteSpace=wrap;html=1;" vertex="1" parent="rC7I6_4OII2koHtztdNK-277">
          <mxGeometry y="330" width="160" height="26" as="geometry" />
        </mxCell>
        <mxCell id="rC7I6_4OII2koHtztdNK-288" value="- Romboide(double base, double altura, String nombre): " style="text;strokeColor=none;fillColor=none;align=left;verticalAlign=top;spacingLeft=4;spacingRight=4;overflow=hidden;rotatable=0;points=[[0,0.5],[1,0.5]];portConstraint=eastwest;whiteSpace=wrap;html=1;" vertex="1" parent="rC7I6_4OII2koHtztdNK-277">
          <mxGeometry y="356" width="160" height="64" as="geometry" />
        </mxCell>
        <mxCell id="rC7I6_4OII2koHtztdNK-289" value="Trapecio" style="swimlane;fontStyle=1;align=center;verticalAlign=top;childLayout=stackLayout;horizontal=1;startSize=26;horizontalStack=0;resizeParent=1;resizeParentMax=0;resizeLast=0;collapsible=1;marginBottom=0;whiteSpace=wrap;html=1;" vertex="1" parent="WIyWlLk6GJQsqaUBKTNV-1">
          <mxGeometry x="1195" y="430" width="160" height="594" as="geometry" />
        </mxCell>
        <mxCell id="rC7I6_4OII2koHtztdNK-290" value="- baseMayor: double" style="text;strokeColor=none;fillColor=none;align=left;verticalAlign=top;spacingLeft=4;spacingRight=4;overflow=hidden;rotatable=0;points=[[0,0.5],[1,0.5]];portConstraint=eastwest;whiteSpace=wrap;html=1;" vertex="1" parent="rC7I6_4OII2koHtztdNK-289">
          <mxGeometry y="26" width="160" height="26" as="geometry" />
        </mxCell>
        <mxCell id="rC7I6_4OII2koHtztdNK-291" value="- baseMenor: double" style="text;strokeColor=none;fillColor=none;align=left;verticalAlign=top;spacingLeft=4;spacingRight=4;overflow=hidden;rotatable=0;points=[[0,0.5],[1,0.5]];portConstraint=eastwest;whiteSpace=wrap;html=1;" vertex="1" parent="rC7I6_4OII2koHtztdNK-289">
          <mxGeometry y="52" width="160" height="26" as="geometry" />
        </mxCell>
        <mxCell id="rC7I6_4OII2koHtztdNK-292" value="- lado1: double" style="text;strokeColor=none;fillColor=none;align=left;verticalAlign=top;spacingLeft=4;spacingRight=4;overflow=hidden;rotatable=0;points=[[0,0.5],[1,0.5]];portConstraint=eastwest;whiteSpace=wrap;html=1;" vertex="1" parent="rC7I6_4OII2koHtztdNK-289">
          <mxGeometry y="78" width="160" height="26" as="geometry" />
        </mxCell>
        <mxCell id="rC7I6_4OII2koHtztdNK-293" value="- lado2: double" style="text;strokeColor=none;fillColor=none;align=left;verticalAlign=top;spacingLeft=4;spacingRight=4;overflow=hidden;rotatable=0;points=[[0,0.5],[1,0.5]];portConstraint=eastwest;whiteSpace=wrap;html=1;" vertex="1" parent="rC7I6_4OII2koHtztdNK-289">
          <mxGeometry y="104" width="160" height="26" as="geometry" />
        </mxCell>
        <mxCell id="rC7I6_4OII2koHtztdNK-294" value="- setBaseMayor(double baseMayor): void" style="text;strokeColor=none;fillColor=none;align=left;verticalAlign=top;spacingLeft=4;spacingRight=4;overflow=hidden;rotatable=0;points=[[0,0.5],[1,0.5]];portConstraint=eastwest;whiteSpace=wrap;html=1;" vertex="1" parent="rC7I6_4OII2koHtztdNK-289">
          <mxGeometry y="130" width="160" height="50" as="geometry" />
        </mxCell>
        <mxCell id="rC7I6_4OII2koHtztdNK-295" value="- setBaseMenor(double baseMenor): void" style="text;strokeColor=none;fillColor=none;align=left;verticalAlign=top;spacingLeft=4;spacingRight=4;overflow=hidden;rotatable=0;points=[[0,0.5],[1,0.5]];portConstraint=eastwest;whiteSpace=wrap;html=1;" vertex="1" parent="rC7I6_4OII2koHtztdNK-289">
          <mxGeometry y="180" width="160" height="40" as="geometry" />
        </mxCell>
        <mxCell id="rC7I6_4OII2koHtztdNK-296" value="- setLado1(double lado1): void" style="text;strokeColor=none;fillColor=none;align=left;verticalAlign=top;spacingLeft=4;spacingRight=4;overflow=hidden;rotatable=0;points=[[0,0.5],[1,0.5]];portConstraint=eastwest;whiteSpace=wrap;html=1;" vertex="1" parent="rC7I6_4OII2koHtztdNK-289">
          <mxGeometry y="220" width="160" height="40" as="geometry" />
        </mxCell>
        <mxCell id="rC7I6_4OII2koHtztdNK-297" value="- setLado2(double lado2): void" style="text;strokeColor=none;fillColor=none;align=left;verticalAlign=top;spacingLeft=4;spacingRight=4;overflow=hidden;rotatable=0;points=[[0,0.5],[1,0.5]];portConstraint=eastwest;whiteSpace=wrap;html=1;" vertex="1" parent="rC7I6_4OII2koHtztdNK-289">
          <mxGeometry y="260" width="160" height="40" as="geometry" />
        </mxCell>
        <mxCell id="rC7I6_4OII2koHtztdNK-298" value="- setNombre(String nombre): void" style="text;strokeColor=none;fillColor=none;align=left;verticalAlign=top;spacingLeft=4;spacingRight=4;overflow=hidden;rotatable=0;points=[[0,0.5],[1,0.5]];portConstraint=eastwest;whiteSpace=wrap;html=1;" vertex="1" parent="rC7I6_4OII2koHtztdNK-289">
          <mxGeometry y="300" width="160" height="40" as="geometry" />
        </mxCell>
        <mxCell id="rC7I6_4OII2koHtztdNK-299" value="- getBaseMayor(): double" style="text;strokeColor=none;fillColor=none;align=left;verticalAlign=top;spacingLeft=4;spacingRight=4;overflow=hidden;rotatable=0;points=[[0,0.5],[1,0.5]];portConstraint=eastwest;whiteSpace=wrap;html=1;" vertex="1" parent="rC7I6_4OII2koHtztdNK-289">
          <mxGeometry y="340" width="160" height="26" as="geometry" />
        </mxCell>
        <mxCell id="rC7I6_4OII2koHtztdNK-300" value="- getBaseMenor(): double" style="text;strokeColor=none;fillColor=none;align=left;verticalAlign=top;spacingLeft=4;spacingRight=4;overflow=hidden;rotatable=0;points=[[0,0.5],[1,0.5]];portConstraint=eastwest;whiteSpace=wrap;html=1;" vertex="1" parent="rC7I6_4OII2koHtztdNK-289">
          <mxGeometry y="366" width="160" height="26" as="geometry" />
        </mxCell>
        <mxCell id="rC7I6_4OII2koHtztdNK-301" value="- getLado1(): double" style="text;strokeColor=none;fillColor=none;align=left;verticalAlign=top;spacingLeft=4;spacingRight=4;overflow=hidden;rotatable=0;points=[[0,0.5],[1,0.5]];portConstraint=eastwest;whiteSpace=wrap;html=1;" vertex="1" parent="rC7I6_4OII2koHtztdNK-289">
          <mxGeometry y="392" width="160" height="26" as="geometry" />
        </mxCell>
        <mxCell id="rC7I6_4OII2koHtztdNK-302" value="- getLado2(): double" style="text;strokeColor=none;fillColor=none;align=left;verticalAlign=top;spacingLeft=4;spacingRight=4;overflow=hidden;rotatable=0;points=[[0,0.5],[1,0.5]];portConstraint=eastwest;whiteSpace=wrap;html=1;" vertex="1" parent="rC7I6_4OII2koHtztdNK-289">
          <mxGeometry y="418" width="160" height="26" as="geometry" />
        </mxCell>
        <mxCell id="rC7I6_4OII2koHtztdNK-303" value="- getNombre(): String" style="text;strokeColor=none;fillColor=none;align=left;verticalAlign=top;spacingLeft=4;spacingRight=4;overflow=hidden;rotatable=0;points=[[0,0.5],[1,0.5]];portConstraint=eastwest;whiteSpace=wrap;html=1;" vertex="1" parent="rC7I6_4OII2koHtztdNK-289">
          <mxGeometry y="444" width="160" height="26" as="geometry" />
        </mxCell>
        <mxCell id="rC7I6_4OII2koHtztdNK-304" value="- calcularPerimetro(): double" style="text;strokeColor=none;fillColor=none;align=left;verticalAlign=top;spacingLeft=4;spacingRight=4;overflow=hidden;rotatable=0;points=[[0,0.5],[1,0.5]];portConstraint=eastwest;whiteSpace=wrap;html=1;" vertex="1" parent="rC7I6_4OII2koHtztdNK-289">
          <mxGeometry y="470" width="160" height="40" as="geometry" />
        </mxCell>
        <mxCell id="rC7I6_4OII2koHtztdNK-305" value="- Trapecio(double baseMayor, double baseMenor, double lado1, double lado2, String nombre): " style="text;strokeColor=none;fillColor=none;align=left;verticalAlign=top;spacingLeft=4;spacingRight=4;overflow=hidden;rotatable=0;points=[[0,0.5],[1,0.5]];portConstraint=eastwest;whiteSpace=wrap;html=1;" vertex="1" parent="rC7I6_4OII2koHtztdNK-289">
          <mxGeometry y="510" width="160" height="84" as="geometry" />
        </mxCell>
        <mxCell id="rC7I6_4OII2koHtztdNK-306" value="Triangulo" style="swimlane;fontStyle=1;align=center;verticalAlign=top;childLayout=stackLayout;horizontal=1;startSize=26;horizontalStack=0;resizeParent=1;resizeParentMax=0;resizeLast=0;collapsible=1;marginBottom=0;whiteSpace=wrap;html=1;" vertex="1" parent="WIyWlLk6GJQsqaUBKTNV-1">
          <mxGeometry x="1365" y="430" width="160" height="474" as="geometry" />
        </mxCell>
        <mxCell id="rC7I6_4OII2koHtztdNK-307" value="- lado1: double" style="text;strokeColor=none;fillColor=none;align=left;verticalAlign=top;spacingLeft=4;spacingRight=4;overflow=hidden;rotatable=0;points=[[0,0.5],[1,0.5]];portConstraint=eastwest;whiteSpace=wrap;html=1;" vertex="1" parent="rC7I6_4OII2koHtztdNK-306">
          <mxGeometry y="26" width="160" height="26" as="geometry" />
        </mxCell>
        <mxCell id="rC7I6_4OII2koHtztdNK-308" value="- lado2: double" style="text;strokeColor=none;fillColor=none;align=left;verticalAlign=top;spacingLeft=4;spacingRight=4;overflow=hidden;rotatable=0;points=[[0,0.5],[1,0.5]];portConstraint=eastwest;whiteSpace=wrap;html=1;" vertex="1" parent="rC7I6_4OII2koHtztdNK-306">
          <mxGeometry y="52" width="160" height="26" as="geometry" />
        </mxCell>
        <mxCell id="rC7I6_4OII2koHtztdNK-309" value="- lado3: double" style="text;strokeColor=none;fillColor=none;align=left;verticalAlign=top;spacingLeft=4;spacingRight=4;overflow=hidden;rotatable=0;points=[[0,0.5],[1,0.5]];portConstraint=eastwest;whiteSpace=wrap;html=1;" vertex="1" parent="rC7I6_4OII2koHtztdNK-306">
          <mxGeometry y="78" width="160" height="26" as="geometry" />
        </mxCell>
        <mxCell id="rC7I6_4OII2koHtztdNK-310" value="- setLado1(double lado1): void" style="text;strokeColor=none;fillColor=none;align=left;verticalAlign=top;spacingLeft=4;spacingRight=4;overflow=hidden;rotatable=0;points=[[0,0.5],[1,0.5]];portConstraint=eastwest;whiteSpace=wrap;html=1;" vertex="1" parent="rC7I6_4OII2koHtztdNK-306">
          <mxGeometry y="104" width="160" height="36" as="geometry" />
        </mxCell>
        <mxCell id="rC7I6_4OII2koHtztdNK-311" value="- setLado2(double lado2): void" style="text;strokeColor=none;fillColor=none;align=left;verticalAlign=top;spacingLeft=4;spacingRight=4;overflow=hidden;rotatable=0;points=[[0,0.5],[1,0.5]];portConstraint=eastwest;whiteSpace=wrap;html=1;" vertex="1" parent="rC7I6_4OII2koHtztdNK-306">
          <mxGeometry y="140" width="160" height="40" as="geometry" />
        </mxCell>
        <mxCell id="rC7I6_4OII2koHtztdNK-312" value="- setLado3(double lado3): void" style="text;strokeColor=none;fillColor=none;align=left;verticalAlign=top;spacingLeft=4;spacingRight=4;overflow=hidden;rotatable=0;points=[[0,0.5],[1,0.5]];portConstraint=eastwest;whiteSpace=wrap;html=1;" vertex="1" parent="rC7I6_4OII2koHtztdNK-306">
          <mxGeometry y="180" width="160" height="44" as="geometry" />
        </mxCell>
        <mxCell id="rC7I6_4OII2koHtztdNK-313" value="- setNombre(String nombre): void" style="text;strokeColor=none;fillColor=none;align=left;verticalAlign=top;spacingLeft=4;spacingRight=4;overflow=hidden;rotatable=0;points=[[0,0.5],[1,0.5]];portConstraint=eastwest;whiteSpace=wrap;html=1;" vertex="1" parent="rC7I6_4OII2koHtztdNK-306">
          <mxGeometry y="224" width="160" height="38" as="geometry" />
        </mxCell>
        <mxCell id="rC7I6_4OII2koHtztdNK-314" value="- getLado1(): double" style="text;strokeColor=none;fillColor=none;align=left;verticalAlign=top;spacingLeft=4;spacingRight=4;overflow=hidden;rotatable=0;points=[[0,0.5],[1,0.5]];portConstraint=eastwest;whiteSpace=wrap;html=1;" vertex="1" parent="rC7I6_4OII2koHtztdNK-306">
          <mxGeometry y="262" width="160" height="26" as="geometry" />
        </mxCell>
        <mxCell id="rC7I6_4OII2koHtztdNK-315" value="- getLado2(): double" style="text;strokeColor=none;fillColor=none;align=left;verticalAlign=top;spacingLeft=4;spacingRight=4;overflow=hidden;rotatable=0;points=[[0,0.5],[1,0.5]];portConstraint=eastwest;whiteSpace=wrap;html=1;" vertex="1" parent="rC7I6_4OII2koHtztdNK-306">
          <mxGeometry y="288" width="160" height="26" as="geometry" />
        </mxCell>
        <mxCell id="rC7I6_4OII2koHtztdNK-316" value="- getLado3(): double" style="text;strokeColor=none;fillColor=none;align=left;verticalAlign=top;spacingLeft=4;spacingRight=4;overflow=hidden;rotatable=0;points=[[0,0.5],[1,0.5]];portConstraint=eastwest;whiteSpace=wrap;html=1;" vertex="1" parent="rC7I6_4OII2koHtztdNK-306">
          <mxGeometry y="314" width="160" height="26" as="geometry" />
        </mxCell>
        <mxCell id="rC7I6_4OII2koHtztdNK-317" value="- getNombre(): String" style="text;strokeColor=none;fillColor=none;align=left;verticalAlign=top;spacingLeft=4;spacingRight=4;overflow=hidden;rotatable=0;points=[[0,0.5],[1,0.5]];portConstraint=eastwest;whiteSpace=wrap;html=1;" vertex="1" parent="rC7I6_4OII2koHtztdNK-306">
          <mxGeometry y="340" width="160" height="34" as="geometry" />
        </mxCell>
        <mxCell id="rC7I6_4OII2koHtztdNK-318" value="- calcularPerimetro(): double" style="text;strokeColor=none;fillColor=none;align=left;verticalAlign=top;spacingLeft=4;spacingRight=4;overflow=hidden;rotatable=0;points=[[0,0.5],[1,0.5]];portConstraint=eastwest;whiteSpace=wrap;html=1;" vertex="1" parent="rC7I6_4OII2koHtztdNK-306">
          <mxGeometry y="374" width="160" height="38" as="geometry" />
        </mxCell>
        <mxCell id="rC7I6_4OII2koHtztdNK-319" value="- Triangulo(double lado1, double lado2, double lado3, String nombre): " style="text;strokeColor=none;fillColor=none;align=left;verticalAlign=top;spacingLeft=4;spacingRight=4;overflow=hidden;rotatable=0;points=[[0,0.5],[1,0.5]];portConstraint=eastwest;whiteSpace=wrap;html=1;" vertex="1" parent="rC7I6_4OII2koHtztdNK-306">
          <mxGeometry y="412" width="160" height="62" as="geometry" />
        </mxCell>
        <mxCell id="rC7I6_4OII2koHtztdNK-323" value="" style="endArrow=block;html=1;rounded=0;exitX=0.5;exitY=0;exitDx=0;exitDy=0;entryX=0.494;entryY=1.024;entryDx=0;entryDy=0;entryPerimeter=0;endFill=0;" edge="1" parent="WIyWlLk6GJQsqaUBKTNV-1" source="rC7I6_4OII2koHtztdNK-181" target="rC7I6_4OII2koHtztdNK-3">
          <mxGeometry width="50" height="50" relative="1" as="geometry">
            <mxPoint x="745" y="420" as="sourcePoint" />
            <mxPoint x="795" y="370" as="targetPoint" />
          </mxGeometry>
        </mxCell>
        <mxCell id="rC7I6_4OII2koHtztdNK-324" value="" style="endArrow=block;html=1;rounded=0;exitX=0.5;exitY=0;exitDx=0;exitDy=0;entryX=0.5;entryY=1;entryDx=0;entryDy=0;endFill=0;" edge="1" parent="WIyWlLk6GJQsqaUBKTNV-1" source="rC7I6_4OII2koHtztdNK-196" target="rC7I6_4OII2koHtztdNK-0">
          <mxGeometry width="50" height="50" relative="1" as="geometry">
            <mxPoint x="745" y="420" as="sourcePoint" />
            <mxPoint x="795" y="370" as="targetPoint" />
          </mxGeometry>
        </mxCell>
        <mxCell id="rC7I6_4OII2koHtztdNK-325" value="" style="endArrow=block;html=1;rounded=0;exitX=0.5;exitY=0;exitDx=0;exitDy=0;entryX=0.5;entryY=0.987;entryDx=0;entryDy=0;entryPerimeter=0;endFill=0;" edge="1" parent="WIyWlLk6GJQsqaUBKTNV-1" source="rC7I6_4OII2koHtztdNK-263" target="rC7I6_4OII2koHtztdNK-3">
          <mxGeometry width="50" height="50" relative="1" as="geometry">
            <mxPoint x="745" y="420" as="sourcePoint" />
            <mxPoint x="795" y="370" as="targetPoint" />
          </mxGeometry>
        </mxCell>
        <mxCell id="rC7I6_4OII2koHtztdNK-326" value="" style="endArrow=block;html=1;rounded=0;exitX=0.5;exitY=0;exitDx=0;exitDy=0;entryX=0.5;entryY=1;entryDx=0;entryDy=0;endFill=0;" edge="1" parent="WIyWlLk6GJQsqaUBKTNV-1" source="rC7I6_4OII2koHtztdNK-277" target="rC7I6_4OII2koHtztdNK-0">
          <mxGeometry width="50" height="50" relative="1" as="geometry">
            <mxPoint x="745" y="420" as="sourcePoint" />
            <mxPoint x="795" y="370" as="targetPoint" />
          </mxGeometry>
        </mxCell>
        <mxCell id="rC7I6_4OII2koHtztdNK-327" value="" style="endArrow=block;html=1;rounded=0;exitX=0.5;exitY=0;exitDx=0;exitDy=0;entryX=0.501;entryY=1.06;entryDx=0;entryDy=0;entryPerimeter=0;endFill=0;" edge="1" parent="WIyWlLk6GJQsqaUBKTNV-1" source="rC7I6_4OII2koHtztdNK-289" target="rC7I6_4OII2koHtztdNK-3">
          <mxGeometry width="50" height="50" relative="1" as="geometry">
            <mxPoint x="895" y="420" as="sourcePoint" />
            <mxPoint x="945" y="370" as="targetPoint" />
          </mxGeometry>
        </mxCell>
        <mxCell id="rC7I6_4OII2koHtztdNK-328" value="" style="endArrow=block;html=1;rounded=0;exitX=0.5;exitY=0;exitDx=0;exitDy=0;entryX=0.507;entryY=0.984;entryDx=0;entryDy=0;entryPerimeter=0;endFill=0;" edge="1" parent="WIyWlLk6GJQsqaUBKTNV-1" source="rC7I6_4OII2koHtztdNK-306" target="rC7I6_4OII2koHtztdNK-3">
          <mxGeometry width="50" height="50" relative="1" as="geometry">
            <mxPoint x="1035" y="470" as="sourcePoint" />
            <mxPoint x="1075" y="310" as="targetPoint" />
          </mxGeometry>
        </mxCell>
        <mxCell id="rC7I6_4OII2koHtztdNK-364" value="CalculadoraEstadistica" style="swimlane;fontStyle=1;align=center;verticalAlign=top;childLayout=stackLayout;horizontal=1;startSize=26;horizontalStack=0;resizeParent=1;resizeParentMax=0;resizeLast=0;collapsible=1;marginBottom=0;whiteSpace=wrap;html=1;" vertex="1" parent="WIyWlLk6GJQsqaUBKTNV-1">
          <mxGeometry x="480" y="1080" width="230" height="404" as="geometry" />
        </mxCell>
        <mxCell id="rC7I6_4OII2koHtztdNK-365" value="- calcularSumatoria(double[] valores): double" style="text;strokeColor=none;fillColor=none;align=left;verticalAlign=top;spacingLeft=4;spacingRight=4;overflow=hidden;rotatable=0;points=[[0,0.5],[1,0.5]];portConstraint=eastwest;whiteSpace=wrap;html=1;" vertex="1" parent="rC7I6_4OII2koHtztdNK-364">
          <mxGeometry y="26" width="230" height="54" as="geometry" />
        </mxCell>
        <mxCell id="rC7I6_4OII2koHtztdNK-366" value="- calcularModa(double[] valores): double" style="text;strokeColor=none;fillColor=none;align=left;verticalAlign=top;spacingLeft=4;spacingRight=4;overflow=hidden;rotatable=0;points=[[0,0.5],[1,0.5]];portConstraint=eastwest;whiteSpace=wrap;html=1;" vertex="1" parent="rC7I6_4OII2koHtztdNK-364">
          <mxGeometry y="80" width="230" height="48" as="geometry" />
        </mxCell>
        <mxCell id="rC7I6_4OII2koHtztdNK-367" value="- calcularPromedio(double[] valores): double" style="text;strokeColor=none;fillColor=none;align=left;verticalAlign=top;spacingLeft=4;spacingRight=4;overflow=hidden;rotatable=0;points=[[0,0.5],[1,0.5]];portConstraint=eastwest;whiteSpace=wrap;html=1;" vertex="1" parent="rC7I6_4OII2koHtztdNK-364">
          <mxGeometry y="128" width="230" height="42" as="geometry" />
        </mxCell>
        <mxCell id="rC7I6_4OII2koHtztdNK-368" value="- calcularMediana(double[] valores): double" style="text;strokeColor=none;fillColor=none;align=left;verticalAlign=top;spacingLeft=4;spacingRight=4;overflow=hidden;rotatable=0;points=[[0,0.5],[1,0.5]];portConstraint=eastwest;whiteSpace=wrap;html=1;" vertex="1" parent="rC7I6_4OII2koHtztdNK-364">
          <mxGeometry y="170" width="230" height="46" as="geometry" />
        </mxCell>
        <mxCell id="rC7I6_4OII2koHtztdNK-369" value="- calcularVarianza(double[] valores): double" style="text;strokeColor=none;fillColor=none;align=left;verticalAlign=top;spacingLeft=4;spacingRight=4;overflow=hidden;rotatable=0;points=[[0,0.5],[1,0.5]];portConstraint=eastwest;whiteSpace=wrap;html=1;" vertex="1" parent="rC7I6_4OII2koHtztdNK-364">
          <mxGeometry y="216" width="230" height="40" as="geometry" />
        </mxCell>
        <mxCell id="rC7I6_4OII2koHtztdNK-370" value="-calcularDesviacionEstandar(double[] valores): double" style="text;strokeColor=none;fillColor=none;align=left;verticalAlign=top;spacingLeft=4;spacingRight=4;overflow=hidden;rotatable=0;points=[[0,0.5],[1,0.5]];portConstraint=eastwest;whiteSpace=wrap;html=1;" vertex="1" parent="rC7I6_4OII2koHtztdNK-364">
          <mxGeometry y="256" width="230" height="74" as="geometry" />
        </mxCell>
        <mxCell id="rC7I6_4OII2koHtztdNK-371" value="- calcularDesviacionEstandar(double[] valores): double" style="text;strokeColor=none;fillColor=none;align=left;verticalAlign=top;spacingLeft=4;spacingRight=4;overflow=hidden;rotatable=0;points=[[0,0.5],[1,0.5]];portConstraint=eastwest;whiteSpace=wrap;html=1;" vertex="1" parent="rC7I6_4OII2koHtztdNK-364">
          <mxGeometry y="330" width="230" height="74" as="geometry" />
        </mxCell>
        <mxCell id="rC7I6_4OII2koHtztdNK-372" value="Estadistica" style="rounded=0;whiteSpace=wrap;html=1;" vertex="1" parent="WIyWlLk6GJQsqaUBKTNV-1">
          <mxGeometry x="785" y="1103" width="120" height="60" as="geometry" />
        </mxCell>
        <mxCell id="rC7I6_4OII2koHtztdNK-373" value="" style="endArrow=block;html=1;rounded=0;entryX=0;entryY=0.5;entryDx=0;entryDy=0;endFill=0;exitX=1;exitY=0.5;exitDx=0;exitDy=0;" edge="1" parent="WIyWlLk6GJQsqaUBKTNV-1" source="rC7I6_4OII2koHtztdNK-365" target="rC7I6_4OII2koHtztdNK-372">
          <mxGeometry width="50" height="50" relative="1" as="geometry">
            <mxPoint x="725" y="1080" as="sourcePoint" />
            <mxPoint x="525" y="1180" as="targetPoint" />
          </mxGeometry>
        </mxCell>
        <mxCell id="rC7I6_4OII2koHtztdNK-374" value="ConjeturaUlmann" style="swimlane;fontStyle=1;align=center;verticalAlign=top;childLayout=stackLayout;horizontal=1;startSize=26;horizontalStack=0;resizeParent=1;resizeParentMax=0;resizeLast=0;collapsible=1;marginBottom=0;whiteSpace=wrap;html=1;" vertex="1" parent="WIyWlLk6GJQsqaUBKTNV-1">
          <mxGeometry x="985" y="1080" width="160" height="198" as="geometry" />
        </mxCell>
        <mxCell id="rC7I6_4OII2koHtztdNK-375" value="- num: double" style="text;strokeColor=none;fillColor=none;align=left;verticalAlign=top;spacingLeft=4;spacingRight=4;overflow=hidden;rotatable=0;points=[[0,0.5],[1,0.5]];portConstraint=eastwest;whiteSpace=wrap;html=1;" vertex="1" parent="rC7I6_4OII2koHtztdNK-374">
          <mxGeometry y="26" width="160" height="26" as="geometry" />
        </mxCell>
        <mxCell id="rC7I6_4OII2koHtztdNK-376" value="- setNum(double num): void" style="text;strokeColor=none;fillColor=none;align=left;verticalAlign=top;spacingLeft=4;spacingRight=4;overflow=hidden;rotatable=0;points=[[0,0.5],[1,0.5]];portConstraint=eastwest;whiteSpace=wrap;html=1;" vertex="1" parent="rC7I6_4OII2koHtztdNK-374">
          <mxGeometry y="52" width="160" height="26" as="geometry" />
        </mxCell>
        <mxCell id="rC7I6_4OII2koHtztdNK-377" value="- setResultado(LinkedList resultado): void" style="text;strokeColor=none;fillColor=none;align=left;verticalAlign=top;spacingLeft=4;spacingRight=4;overflow=hidden;rotatable=0;points=[[0,0.5],[1,0.5]];portConstraint=eastwest;whiteSpace=wrap;html=1;" vertex="1" parent="rC7I6_4OII2koHtztdNK-374">
          <mxGeometry y="78" width="160" height="42" as="geometry" />
        </mxCell>
        <mxCell id="rC7I6_4OII2koHtztdNK-378" value="- getNum(): double" style="text;strokeColor=none;fillColor=none;align=left;verticalAlign=top;spacingLeft=4;spacingRight=4;overflow=hidden;rotatable=0;points=[[0,0.5],[1,0.5]];portConstraint=eastwest;whiteSpace=wrap;html=1;" vertex="1" parent="rC7I6_4OII2koHtztdNK-374">
          <mxGeometry y="120" width="160" height="26" as="geometry" />
        </mxCell>
        <mxCell id="rC7I6_4OII2koHtztdNK-379" value="- getResultado(): LinkedList" style="text;strokeColor=none;fillColor=none;align=left;verticalAlign=top;spacingLeft=4;spacingRight=4;overflow=hidden;rotatable=0;points=[[0,0.5],[1,0.5]];portConstraint=eastwest;whiteSpace=wrap;html=1;" vertex="1" parent="rC7I6_4OII2koHtztdNK-374">
          <mxGeometry y="146" width="160" height="26" as="geometry" />
        </mxCell>
        <mxCell id="rC7I6_4OII2koHtztdNK-380" value="- calcular(): void" style="text;strokeColor=none;fillColor=none;align=left;verticalAlign=top;spacingLeft=4;spacingRight=4;overflow=hidden;rotatable=0;points=[[0,0.5],[1,0.5]];portConstraint=eastwest;whiteSpace=wrap;html=1;" vertex="1" parent="rC7I6_4OII2koHtztdNK-374">
          <mxGeometry y="172" width="160" height="26" as="geometry" />
        </mxCell>
        <mxCell id="rC7I6_4OII2koHtztdNK-382" value="Conjeturas" style="rounded=0;whiteSpace=wrap;html=1;" vertex="1" parent="WIyWlLk6GJQsqaUBKTNV-1">
          <mxGeometry x="1205" y="1100" width="120" height="60" as="geometry" />
        </mxCell>
        <mxCell id="rC7I6_4OII2koHtztdNK-383" value="" style="endArrow=block;html=1;rounded=0;entryX=0;entryY=0.5;entryDx=0;entryDy=0;exitX=1.005;exitY=-0.085;exitDx=0;exitDy=0;exitPerimeter=0;endFill=0;" edge="1" parent="WIyWlLk6GJQsqaUBKTNV-1" source="rC7I6_4OII2koHtztdNK-376" target="rC7I6_4OII2koHtztdNK-382">
          <mxGeometry width="50" height="50" relative="1" as="geometry">
            <mxPoint x="1025" y="1240" as="sourcePoint" />
            <mxPoint x="1075" y="1190" as="targetPoint" />
          </mxGeometry>
        </mxCell>
        <mxCell id="rC7I6_4OII2koHtztdNK-384" value="ConjeturaGilbreath" style="swimlane;fontStyle=1;align=center;verticalAlign=top;childLayout=stackLayout;horizontal=1;startSize=26;horizontalStack=0;resizeParent=1;resizeParentMax=0;resizeLast=0;collapsible=1;marginBottom=0;whiteSpace=wrap;html=1;" vertex="1" parent="WIyWlLk6GJQsqaUBKTNV-1">
          <mxGeometry x="985" y="1310" width="160" height="52" as="geometry" />
        </mxCell>
        <mxCell id="rC7I6_4OII2koHtztdNK-385" value="- n: int" style="text;strokeColor=none;fillColor=none;align=left;verticalAlign=top;spacingLeft=4;spacingRight=4;overflow=hidden;rotatable=0;points=[[0,0.5],[1,0.5]];portConstraint=eastwest;whiteSpace=wrap;html=1;" vertex="1" parent="rC7I6_4OII2koHtztdNK-384">
          <mxGeometry y="26" width="160" height="26" as="geometry" />
        </mxCell>
      </root>
    </mxGraphModel>
  </diagram>
</mxfile>
